<svg width="40" height="40" viewBox="0 0 40 40" fill="none" xmlns="http://www.w3.org/2000/svg">
    <path d="M19.9999 3.33325C20.6255 3.33325 21.2421 3.36714 21.8499 3.43492C22.0675 3.45899 22.2782 3.52569 22.4699 3.63118C22.6617 3.73668 22.8309 3.87892 22.9677 4.04978C23.1045 4.22064 23.2063 4.41677 23.2673 4.62698C23.3283 4.83719 23.3473 5.05736 23.3233 5.27492C23.2992 5.49248 23.2325 5.70316 23.127 5.89494C23.0215 6.08672 22.8792 6.25585 22.7084 6.39266C22.5375 6.52947 22.3414 6.63129 22.1312 6.6923C21.921 6.75332 21.7008 6.77233 21.4833 6.74825C18.7367 6.44099 15.9625 6.99482 13.5444 8.33312C11.1263 9.67143 9.18384 11.7281 7.9857 14.2186C6.78755 16.7091 6.39292 19.5104 6.8564 22.235C7.31989 24.9595 8.61857 27.4728 10.5728 29.427C12.5271 31.3813 15.0403 32.68 17.7649 33.1434C20.4895 33.6069 23.2908 33.2123 25.7813 32.0141C28.2718 30.816 30.3284 28.8735 31.6667 26.4555C33.005 24.0374 33.5588 21.2632 33.2516 18.5166C33.2275 18.299 33.2465 18.0789 33.3075 17.8687C33.3685 17.6584 33.4704 17.4623 33.6072 17.2914C33.8835 16.9464 34.2855 16.7252 34.7249 16.6766C35.1643 16.628 35.605 16.7559 35.9501 17.0322C36.1209 17.169 36.2632 17.3381 36.3687 17.5299C36.4742 17.7217 36.5408 17.9324 36.5649 18.1499C36.6316 18.7577 36.6655 19.3744 36.6666 19.9999C36.6666 29.2049 29.2049 36.6666 19.9999 36.6666C10.7949 36.6666 3.33325 29.2049 3.33325 19.9999C3.33325 10.7949 10.7949 3.33325 19.9999 3.33325ZM19.9466 13.1283C20.0564 13.5561 19.9919 14.0101 19.7672 14.3904C19.5425 14.7708 19.176 15.0463 18.7483 15.1566C17.573 15.4644 16.55 16.1894 15.87 17.1961C15.19 18.2028 14.8995 19.4226 15.0528 20.6277C15.206 21.8329 15.7925 22.9411 16.7028 23.7457C17.6131 24.5502 18.7851 24.996 19.9999 24.9999C21.1088 25.0004 22.1863 24.6322 23.0631 23.9534C23.9398 23.2746 24.566 22.3235 24.8433 21.2499C24.9614 20.8305 25.2391 20.474 25.6168 20.2569C25.9946 20.0397 26.4424 19.9791 26.8643 20.0881C27.2861 20.197 27.6486 20.4669 27.8739 20.8398C28.0993 21.2127 28.1696 21.6591 28.0699 22.0833C27.5586 24.0431 26.3513 25.7498 24.6735 26.8845C22.9957 28.0192 20.9622 28.5043 18.9529 28.2491C16.9435 27.9939 15.0958 27.0159 13.7549 25.4978C12.414 23.9797 11.6717 22.0254 11.6666 19.9999C11.6663 18.1522 12.2801 16.3568 13.4114 14.896C14.5428 13.4352 16.1276 12.3918 17.9166 11.9299C18.1286 11.8753 18.3492 11.8629 18.566 11.8936C18.7827 11.9243 18.9913 11.9973 19.1798 12.1086C19.3683 12.2199 19.5331 12.3672 19.6646 12.5421C19.7962 12.7171 19.892 12.9163 19.9466 13.1283ZM30.8399 3.54492C31.1441 3.67105 31.4042 3.88448 31.5872 4.15827C31.7702 4.43205 31.868 4.75393 31.8683 5.08325V8.13325H34.9166C35.2462 8.13332 35.5683 8.23111 35.8423 8.41425C36.1164 8.59739 36.3299 8.85766 36.456 9.16216C36.5822 9.46666 36.6152 9.80172 36.5509 10.125C36.4866 10.4482 36.3279 10.7452 36.0949 10.9783L30.1999 16.8666C29.8874 17.1792 29.4636 17.3548 29.0216 17.3549H24.9999L21.9533 20.4033C21.6405 20.716 21.2164 20.8917 20.7741 20.8917C20.3318 20.8917 19.9077 20.716 19.5949 20.4033C19.2822 20.0905 19.1065 19.6664 19.1065 19.2241C19.1065 18.7818 19.2822 18.3577 19.5949 18.0449L22.6433 14.9999V10.9766C22.6433 10.5346 22.819 10.1107 23.1316 9.79825L29.0233 3.90492C29.2563 3.6717 29.5533 3.51285 29.8767 3.44847C30.2001 3.38409 30.5353 3.41708 30.8399 3.54325M28.5349 9.10492L25.9766 11.6666V14.0233H28.3333L30.8933 11.4649H30.2016C29.7596 11.4649 29.3356 11.2893 29.0231 10.9768C28.7105 10.6642 28.5349 10.2403 28.5349 9.79825V9.10492Z" fill="#F4F4F5"/>
</svg>
