<svg width="40" height="40" viewBox="0 0 40 40" fill="none" xmlns="http://www.w3.org/2000/svg">
    <path d="M15.9166 25.25L30.0416 11.125C30.375 10.7917 30.7639 10.625 31.2083 10.625C31.6528 10.625 32.0416 10.7917 32.375 11.125C32.7083 11.4583 32.875 11.8544 32.875 12.3133C32.875 12.7722 32.7083 13.1678 32.375 13.5L17.0833 28.8333C16.75 29.1667 16.3611 29.3333 15.9166 29.3333C15.4722 29.3333 15.0833 29.1667 14.75 28.8333L7.58331 21.6667C7.24998 21.3333 7.08997 20.9378 7.10331 20.48C7.11664 20.0222 7.29053 19.6261 7.62497 19.2917C7.95942 18.9572 8.35553 18.7906 8.81331 18.7917C9.27109 18.7928 9.66664 18.9594 9.99997 19.2917L15.9166 25.25Z" fill="#22CF98"/>
</svg>
