<svg width="40" height="40" viewBox="0 0 40 40" fill="none" xmlns="http://www.w3.org/2000/svg">
    <path d="M28.2234 14.9416C27.7772 11.5897 26.0745 8.53247 23.4596 6.38843C20.8448 4.24438 17.5132 3.17363 14.1389 3.39281C10.7646 3.61199 7.59948 5.10474 5.28401 7.56903C2.96854 10.0333 1.67558 13.2852 1.66675 16.6666C1.66675 19.8199 2.76175 22.7182 4.59341 25.0016C5.94008 26.6832 6.66675 28.5416 6.66675 30.5099V36.6666H21.6667L21.6684 31.6666H25.0001C25.8841 31.6666 26.732 31.3154 27.3571 30.6903C27.9822 30.0651 28.3334 29.2173 28.3334 28.3332V23.4516L31.6001 22.0516C32.1701 21.8082 32.2201 21.2282 31.9734 20.8399L28.2234 14.9416ZM5.00008 16.6666C4.99752 14.1253 5.9626 11.6783 7.6992 9.82297C9.43581 7.9676 11.8137 6.843 14.3496 6.67769C16.8855 6.51238 19.3892 7.31876 21.352 8.93297C23.3148 10.5472 24.5894 12.8481 24.9167 15.3682L25.0117 16.1049L27.5834 20.1466L25.0001 21.2532V28.3332H18.3367L18.3334 33.3332H10.0001V30.5099C10.0001 27.7782 9.01508 25.1899 7.19175 22.9166C5.76891 21.1447 4.99548 18.9391 5.00008 16.6666ZM35.2567 30.1699L32.4817 28.3199C34.1277 25.8577 35.0043 22.9616 35.0001 19.9999C35.0051 17.0378 34.1291 14.1411 32.4834 11.6782L35.2567 9.82825C37.2686 12.8385 38.3396 16.3792 38.3334 19.9999C38.3334 23.7632 37.2001 27.2599 35.2567 30.1699Z" fill="#F4F4F5"/>
</svg>
