<svg width="40" height="40" viewBox="0 0 40 40" fill="none" xmlns="http://www.w3.org/2000/svg">
    <path fill-rule="evenodd" clip-rule="evenodd" d="M9.11679 9.11679C9.35116 8.8827 9.66887 8.75122 10.0001 8.75122C10.3314 8.75122 10.6491 8.8827 10.8835 9.11679L30.8835 29.1168C31.0063 29.2312 31.1048 29.3692 31.1731 29.5226C31.2414 29.6759 31.2781 29.8414 31.2811 30.0093C31.2841 30.1771 31.2532 30.3438 31.1903 30.4994C31.1275 30.6551 31.0339 30.7965 30.9152 30.9152C30.7965 31.0339 30.6551 31.1275 30.4994 31.1903C30.3438 31.2532 30.1771 31.2841 30.0093 31.2811C29.8414 31.2781 29.6759 31.2414 29.5226 31.1731C29.3692 31.1048 29.2312 31.0063 29.1168 30.8835L9.11679 10.8835C8.8827 10.6491 8.75122 10.3314 8.75122 10.0001C8.75122 9.66887 8.8827 9.35116 9.11679 9.11679Z" fill="#E81919"/>
    <path fill-rule="evenodd" clip-rule="evenodd" d="M30.8834 9.11679C31.1175 9.35116 31.249 9.66887 31.249 10.0001C31.249 10.3314 31.1175 10.6491 30.8834 10.8835L10.8834 30.8835C10.6464 31.1043 10.333 31.2245 10.0092 31.2187C9.68536 31.213 9.37639 31.0818 9.14737 30.8528C8.91834 30.6238 8.78716 30.3148 8.78144 29.991C8.77573 29.6672 8.89594 29.3537 9.11674 29.1168L29.1167 9.11679C29.3511 8.8827 29.6688 8.75122 30.0001 8.75122C30.3313 8.75122 30.649 8.8827 30.8834 9.11679Z" fill="#E81919"/>
</svg>
