<svg width="40" height="40" viewBox="0 0 40 40" fill="none" xmlns="http://www.w3.org/2000/svg">
    <path d="M21.6666 5.00008C28.1332 5.00008 33.3332 10.2334 33.3332 16.6667C33.3332 21.3334 30.6166 25.3167 26.6666 27.1834V35.0001H14.9999V30.0001H13.3332C11.4832 30.0001 9.99989 28.5167 9.99989 26.6667V21.6667H7.49989C6.79989 21.6667 6.39989 20.8334 6.79989 20.3167L9.99989 16.1001C10.1467 13.1056 11.4403 10.2824 13.6123 8.21583C15.7844 6.14925 18.6684 4.99777 21.6666 5.00008ZM21.6666 1.66675C14.0332 1.66675 7.68322 7.38341 6.76656 14.8501L4.16656 18.3334C3.19989 19.5334 3.03322 21.2001 3.73322 22.6501C4.33322 23.8501 5.39989 24.6667 6.66656 24.9167V26.6667C6.66656 29.7667 8.79989 32.3834 11.6666 33.1167V38.3334H29.9999V29.1167C34.1666 26.3834 36.6666 21.7667 36.6666 16.6667C36.6666 8.40008 29.9332 1.66675 21.6666 1.66675ZM26.8332 15.7001V15.0001C26.8332 14.7501 26.8332 14.6001 26.7332 14.3667L28.2166 13.2667C28.3332 13.2001 28.3332 12.9667 28.3332 12.8001L26.9666 10.5334C26.8832 10.3834 26.6666 10.3001 26.4999 10.3834L24.8499 11.0834C24.5499 10.7667 24.1666 10.5334 23.7666 10.3834L23.4999 8.66675C23.4499 8.43341 23.3332 8.33341 23.1332 8.33341H20.4832C20.3166 8.33341 20.1666 8.43341 20.1666 8.66675L19.9332 10.3834C19.5499 10.5334 19.1666 10.7667 18.8332 11.0834L17.1166 10.3834C16.9666 10.3001 16.8332 10.3834 16.7332 10.5334L15.3999 12.8001C15.3166 13.0334 15.3166 13.2001 15.4832 13.2667L16.8832 14.3667C16.8832 14.6001 16.8332 14.8334 16.8332 15.0001C16.8332 15.2334 16.8832 15.4667 16.8832 15.7001L15.4832 16.7834C15.3166 16.8667 15.3166 17.0167 15.3999 17.1834L16.7332 19.5167C16.8332 19.6834 16.9666 19.6834 17.1166 19.6834L18.7666 18.9667C19.1666 19.2834 19.4666 19.4501 19.9332 19.6001L20.1666 21.4001C20.1666 21.5501 20.3166 21.6667 20.4832 21.6667H23.1332C23.3332 21.6667 23.4499 21.5501 23.4999 21.4001L23.7666 19.6001C24.1666 19.4501 24.5499 19.2834 24.8499 18.9834L26.4999 19.6834C26.6666 19.6834 26.8832 19.6834 26.9666 19.5167L28.3332 17.1834C28.3332 17.0167 28.3332 16.8667 28.2166 16.7834L26.8332 15.7001ZM21.8332 17.4167C20.5332 17.4167 19.4666 16.3167 19.4666 15.0001C19.4666 13.6834 20.4832 12.6501 21.8332 12.6501C23.1332 12.6501 24.2332 13.6667 24.2332 15.0001C24.2332 16.3334 23.1332 17.4167 21.8332 17.4167Z" fill="#F4F4F5"/>
</svg>
