<svg width="40" height="40" viewBox="0 0 40 40" fill="none" xmlns="http://www.w3.org/2000/svg">
    <path d="M18.0416 36.6666C17.2916 36.6666 16.6461 36.4166 16.105 35.9166C15.5639 35.4166 15.2372 34.8055 15.125 34.0833L14.75 31.3333C14.3889 31.1944 14.0489 31.0277 13.73 30.8333C13.4111 30.6388 13.0983 30.4305 12.7916 30.2083L10.2083 31.2916C9.51386 31.5971 8.81941 31.6249 8.12497 31.3749C7.43052 31.1249 6.88886 30.6805 6.49997 30.0416L4.54163 26.6249C4.15274 25.986 4.04163 25.3055 4.2083 24.5833C4.37497 23.861 4.74997 23.2638 5.3333 22.7916L7.54163 21.1249C7.51386 20.9305 7.49997 20.7427 7.49997 20.5616V19.4366C7.49997 19.2566 7.51386 19.0694 7.54163 18.8749L5.3333 17.2083C4.74997 16.736 4.37497 16.1388 4.2083 15.4166C4.04163 14.6944 4.15274 14.0138 4.54163 13.3749L6.49997 9.95825C6.88886 9.31936 7.43052 8.87492 8.12497 8.62492C8.81941 8.37492 9.51386 8.4027 10.2083 8.70825L12.7916 9.79158C13.0972 9.56936 13.4166 9.36103 13.75 9.16658C14.0833 8.97214 14.4166 8.80547 14.75 8.66658L15.125 5.91659C15.2361 5.19436 15.5627 4.58325 16.105 4.08325C16.6472 3.58325 17.2927 3.33325 18.0416 3.33325H21.9583C22.7083 3.33325 23.3544 3.58325 23.8966 4.08325C24.4389 4.58325 24.765 5.19436 24.875 5.91659L25.25 8.66658C25.6111 8.80547 25.9516 8.97214 26.2716 9.16658C26.5916 9.36103 26.9039 9.56936 27.2083 9.79158L29.7916 8.70825C30.4861 8.4027 31.1805 8.37492 31.875 8.62492C32.5694 8.87492 33.1111 9.31936 33.5 9.95825L35.4583 13.3749C35.8472 14.0138 35.9583 14.6944 35.7916 15.4166C35.625 16.1388 35.25 16.736 34.6666 17.2083L32.4583 18.8749C32.4861 19.0694 32.5 19.2571 32.5 19.4383V20.5616C32.5 20.7427 32.4722 20.9305 32.4166 21.1249L34.625 22.7916C35.2083 23.2638 35.5833 23.861 35.75 24.5833C35.9166 25.3055 35.8055 25.986 35.4166 26.6249L33.4166 30.0416C33.0277 30.6805 32.4861 31.1249 31.7916 31.3749C31.0972 31.6249 30.4027 31.5971 29.7083 31.2916L27.2083 30.2083C26.9027 30.4305 26.5833 30.6388 26.25 30.8333C25.9166 31.0277 25.5833 31.1944 25.25 31.3333L24.875 34.0833C24.7639 34.8055 24.4377 35.4166 23.8966 35.9166C23.3555 36.4166 22.7094 36.6666 21.9583 36.6666H18.0416ZM20.0833 25.8333C21.6944 25.8333 23.0694 25.2638 24.2083 24.1249C25.3472 22.986 25.9166 21.611 25.9166 19.9999C25.9166 18.3888 25.3472 17.0138 24.2083 15.8749C23.0694 14.736 21.6944 14.1666 20.0833 14.1666C18.4444 14.1666 17.0622 14.736 15.9366 15.8749C14.8111 17.0138 14.2489 18.3888 14.25 19.9999C14.2511 21.611 14.8139 22.986 15.9383 24.1249C17.0627 25.2638 18.4444 25.8333 20.0833 25.8333Z" fill="#F4F4F5"/>
</svg>
