<svg width="40" height="40" viewBox="0 0 40 40" fill="none" xmlns="http://www.w3.org/2000/svg">
    <path d="M27.4999 9.16667C28.384 9.16667 29.2318 8.81548 29.8569 8.19036C30.4821 7.56523 30.8333 6.71739 30.8333 5.83333C30.8333 4.94928 30.4821 4.10143 29.8569 3.47631C29.2318 2.85119 28.384 2.5 27.4999 2.5C26.6159 2.5 25.768 2.85119 25.1429 3.47631C24.5178 4.10143 24.1666 4.94928 24.1666 5.83333C24.1666 6.71739 24.5178 7.56523 25.1429 8.19036C25.768 8.81548 26.6159 9.16667 27.4999 9.16667ZM21.4999 32.3333L23.1666 25L26.6666 28.3333V38.3333H29.9999V25.8333L26.4999 22.5L27.4999 17.5C28.6419 18.8085 30.0509 19.8574 31.632 20.5761C33.2131 21.2948 34.9298 21.6667 36.6666 21.6667V18.3333C33.7333 18.3833 30.9999 16.85 29.4999 14.3333L27.8333 11.6667C27.2333 10.6667 26.1666 10 24.9999 10C24.4999 10 24.1666 10.1667 23.6666 10.1667L14.9999 13.8333V21.6667H18.3333V16L21.3333 14.8333L18.6666 28.3333L10.4999 26.6667L9.83325 30L21.4999 32.3333ZM6.66659 15C6.22456 15 5.80063 14.8244 5.48807 14.5118C5.17551 14.1993 4.99992 13.7754 4.99992 13.3333C4.99992 12.8913 5.17551 12.4674 5.48807 12.1548C5.80063 11.8423 6.22456 11.6667 6.66659 11.6667H11.6666V15H6.66659ZM8.33325 8.33333C7.89122 8.33333 7.4673 8.15774 7.15474 7.84518C6.84218 7.53262 6.66659 7.10869 6.66659 6.66667C6.66659 6.22464 6.84218 5.80072 7.15474 5.48816C7.4673 5.17559 7.89122 5 8.33325 5H16.6666V8.33333H8.33325ZM4.99992 21.6667C4.55789 21.6667 4.13397 21.4911 3.82141 21.1785C3.50885 20.8659 3.33325 20.442 3.33325 20C3.33325 19.558 3.50885 19.134 3.82141 18.8215C4.13397 18.5089 4.55789 18.3333 4.99992 18.3333H11.6666V21.6667H4.99992Z" fill="#F4F4F5"/>
</svg>
