<svg width="40" height="40" viewBox="0 0 40 40" fill="none" xmlns="http://www.w3.org/2000/svg">
    <path d="M27.3333 34.9999L25 32.6666L27.625 29.9999L25 27.3749L27.3333 24.9999L30 27.6666L32.625 24.9999L35 27.3749L32.3333 29.9999L35 32.6666L32.625 34.9999L30 32.3749L27.3333 34.9999ZM10 31.6666C10.4722 31.6666 10.8683 31.5066 11.1883 31.1866C11.5083 30.8666 11.6678 30.471 11.6667 29.9999C11.6656 29.5288 11.5056 29.1333 11.1867 28.8133C10.8678 28.4933 10.4722 28.3333 10 28.3333C9.52778 28.3333 9.13222 28.4933 8.81333 28.8133C8.49444 29.1333 8.33444 29.5288 8.33333 29.9999C8.33222 30.471 8.49222 30.8671 8.81333 31.1883C9.13444 31.5094 9.53 31.6688 10 31.6666ZM10 34.9999C8.61111 34.9999 7.43056 34.5138 6.45833 33.5416C5.48611 32.5694 5 31.3888 5 29.9999C5 28.611 5.48611 27.4305 6.45833 26.4583C7.43056 25.486 8.61111 24.9999 10 24.9999C11.0278 24.9999 11.9656 25.2849 12.8133 25.8549C13.6611 26.4249 14.2789 27.1955 14.6667 28.1666C15.75 27.861 16.6322 27.2638 17.3133 26.3749C17.9944 25.486 18.3344 24.4721 18.3333 23.3333V16.6666C18.3333 14.361 19.1461 12.396 20.7717 10.7716C22.3972 9.14714 24.3622 8.33436 26.6667 8.33325H28.5833L25.9583 5.70825L28.3333 3.33325L35 9.99992L28.3333 16.6666L25.9583 14.3333L28.5833 11.6666H26.6667C25.2778 11.6666 24.0972 12.1527 23.125 13.1249C22.1528 14.0971 21.6667 15.2777 21.6667 16.6666V23.3333C21.6667 25.361 21.0139 27.146 19.7083 28.6883C18.4028 30.2305 16.75 31.1816 14.75 31.5416C14.4167 32.5694 13.8122 33.4027 12.9367 34.0416C12.0611 34.6805 11.0822 34.9999 10 34.9999ZM7.33333 14.9999L5 12.6666L7.625 9.99992L5 7.37492L7.33333 4.99992L10 7.66659L12.625 4.99992L15 7.37492L12.3333 9.99992L15 12.6666L12.625 14.9999L10 12.3749L7.33333 14.9999Z" fill="#F4F4F5"/>
</svg>
